<svg width="100" height="100" viewBox="0 0 100 100" version="1.1" xmlns="http://www.w3.org/2000/svg" xmlns:xlink="http://www.w3.org/1999/xlink">
<g id="Canvas" transform="translate(108 189)">
<g id="Default">
<use xlink:href="#path0_fill" transform="translate(-108 -189)"/>
</g>
</g>
<defs>
<path id="path0_fill" fill-rule="evenodd" fill="rgba(12, 12, 13, 0.8)"  d="M 49.5652 29L 67.391 29C 68.3366 29 69.2434 28.5643 69.912 27.7887C 70.5806 27.0131 70.9562 25.9612 70.9562 24.8644C 70.9562 23.7676 70.5806 22.7157 69.912 21.9401C 69.2434 21.1645 68.3366 20.7288 67.391 20.7288L 58.1715 20.7288L 69.9116 7.11029C 70.2521 6.72879 70.5237 6.27245 70.7106 5.7679C 70.8974 5.26334 70.9958 4.72066 70.9999 4.17154C 71.004 3.62242 70.9138 3.07784 70.7345 2.5696C 70.5553 2.06134 70.2905 1.5996 69.9558 1.21129C 69.621 0.823001 69.223 0.515918 68.7848 0.307971C 68.3467 0.100024 67.8772 -0.00460529 67.4039 0.000155456C 66.9305 0.00493146 66.4626 0.119021 66.0277 0.335757C 65.5927 0.552508 65.1993 0.867572 64.8704 1.26256L 53.1303 14.8811L 53.1303 4.18642C 53.1303 3.08959 52.7547 2.03769 52.0861 1.26212C 51.4175 0.486545 50.5107 0.0508299 49.5652 0.0508299C 48.6196 0.0508299 47.7128 0.486545 47.0442 1.26212C 46.3756 2.03769 46 3.08959 46 4.18642L 46 24.8644C 46 25.9612 46.3756 27.0131 47.0442 27.7887C 47.7128 28.5643 48.6196 29 49.5652 29ZM 13.7493 75.0013C 11.0299 75.0013 8.37164 75.7344 6.11059 77.1079C 3.84953 78.4813 2.08726 80.4334 1.04661 82.7174C 0.0059584 85.0013 -0.266327 87.5145 0.264198 89.9392C 0.794716 92.3638 2.1042 94.591 4.02707 96.339C 5.94994 98.0871 8.39983 99.2775 11.0669 99.7598C 13.734 100.242 16.4985 99.9946 19.0109 99.0485C 21.5232 98.1025 23.6706 96.5004 25.1814 94.4449C 26.6922 92.3894 27.4985 89.9728 27.4985 87.5007C 27.4985 85.8592 27.1429 84.2339 26.4519 82.7174C 25.761 81.2009 24.7482 79.823 23.4715 78.6623C 22.1947 77.5016 20.679 76.5809 19.0109 75.9528C 17.3428 75.3246 15.5548 75.0013 13.7493 75.0013ZM 5.49971 30.0037C 4.0411 30.0037 2.64223 30.5305 1.61083 31.4681C 0.579437 32.4058 7.4737e-06 33.6775 7.4737e-06 35.0035C 7.4737e-06 36.3295 0.579437 37.6012 1.61083 38.5388C 2.64223 39.4765 4.0411 40.0032 5.49971 40.0032C 13.4682 39.9249 21.3736 41.294 28.7523 44.0301C 36.131 46.7662 42.8344 50.8143 48.4693 55.937C 54.1042 61.0596 58.5571 67.1536 61.5669 73.8615C 64.5766 80.5694 66.0826 87.7562 65.9965 95.0003C 65.9965 96.3263 66.5759 97.598 67.6073 98.5356C 68.6387 99.4732 70.0376 100 71.4962 100C 72.9548 100 74.3537 99.4732 75.3851 98.5356C 76.4164 97.598 76.9959 96.3263 76.9959 95.0003C 77.0975 86.4392 75.3176 77.9458 71.7605 70.0183C 68.2035 62.0909 62.9409 54.8889 56.2815 48.835C 49.6222 42.781 41.7001 37.9969 32.9799 34.7632C 24.2597 31.5295 14.9169 29.9114 5.49971 30.0037ZM 5.49971 50.0027C 4.0411 50.0027 2.64223 50.5294 1.61083 51.4671C 0.579437 52.4047 7.4737e-06 53.6764 7.4737e-06 55.0024C 7.4737e-06 56.3284 0.579437 57.6001 1.61083 58.5378C 2.64223 59.4754 4.0411 60.0021 5.49971 60.0021C 10.5705 59.9526 15.6011 60.8241 20.2964 62.5653C 24.9918 64.3066 29.2575 66.8827 32.8433 70.1425C 36.429 73.4023 39.2627 77.2802 41.1781 81.5487C 43.0935 85.8172 44.0521 90.3905 43.9976 95.0003C 43.9976 96.3263 44.5771 97.598 45.6085 98.5356C 46.6399 99.4732 48.0387 100 49.4974 100C 50.956 100 52.3548 99.4732 53.3862 98.5356C 54.4176 97.598 54.9971 96.3263 54.9971 95.0003C 55.0707 89.0725 53.8408 83.1911 51.3794 77.7015C 48.918 72.2119 45.2748 67.2247 40.6638 63.0329C 36.0528 58.8411 30.5669 55.5291 24.5284 53.2915C 18.4898 51.0538 12.0202 49.9357 5.49971 50.0027ZM 78.609 21L 96.4348 21C 97.3804 21 98.2872 21.4357 98.9558 22.2113C 99.6244 22.9869 100 24.0388 100 25.1356L 100 45.8136C 100 46.9104 99.6244 47.9623 98.9558 48.7379C 98.2872 49.5135 97.3804 49.9492 96.4348 49.9492C 95.4893 49.9492 94.5825 49.5135 93.9139 48.7379C 93.2453 47.9623 92.8697 46.9104 92.8697 45.8136L 92.8697 35.1189L 81.1296 48.7374C 80.8007 49.1324 80.4073 49.4475 79.9723 49.6642C 79.5374 49.881 79.0695 49.9951 78.5961 49.9999C 78.1228 50.0046 77.6533 49.9 77.2152 49.692C 76.777 49.4841 76.379 49.177 76.0442 48.7887C 75.7095 48.4004 75.4447 47.9387 75.2655 47.4304C 75.0862 46.9222 74.996 46.3776 75.0001 45.8285C 75.0042 45.2793 75.1026 44.7367 75.2894 44.2321C 75.4763 43.7276 75.7479 43.2712 76.0884 42.8897L 87.8285 29.2712L 78.609 29.2712C 77.6634 29.2712 76.7566 28.8355 76.088 28.0599C 75.4194 27.2843 75.0438 26.2324 75.0438 25.1356C 75.0438 24.0388 75.4194 22.9869 76.088 22.2113C 76.7566 21.4357 77.6634 21 78.609 21Z"/>
</defs>
</svg>
